<svg width="450" height="245" viewBox="0 0 450 245" fill="none" xmlns="http://www.w3.org/2000/svg">
<rect width="20.6" height="20.6" rx="10.3" fill="#FF6900" fill-opacity="0.2"/>
<path d="M14.5 7.15002L8.725 12.925L6.1 10.3" stroke="#FF6900" stroke-width="1.05" stroke-linecap="round" stroke-linejoin="round"/>
<rect y="37.4" width="20.6" height="20.6" rx="10.3" fill="#FF6900" fill-opacity="0.2"/>
<path d="M14.5 44.55L8.725 50.325L6.1 47.7" stroke="#FF6900" stroke-width="1.05" stroke-linecap="round" stroke-linejoin="round"/>
<rect y="74.8" width="20.6" height="20.6" rx="10.3" fill="#FF6900" fill-opacity="0.2"/>
<path d="M14.5 81.9501L8.725 87.7251L6.1 85.1001" stroke="#FF6900" stroke-width="1.05" stroke-linecap="round" stroke-linejoin="round"/>
<rect y="112.2" width="20.6" height="20.6" rx="10.3" fill="#FF6900" fill-opacity="0.2"/>
<path d="M14.5 119.35L8.725 125.125L6.1 122.5" stroke="#FF6900" stroke-width="1.05" stroke-linecap="round" stroke-linejoin="round"/>
<rect y="149.6" width="20.6" height="20.6" rx="10.3" fill="#FF6900" fill-opacity="0.2"/>
<path d="M14.5 156.75L8.725 162.525L6.1 159.9" stroke="#FF6900" stroke-width="1.05" stroke-linecap="round" stroke-linejoin="round"/>
<rect y="187" width="20.6" height="20.6" rx="10.3" fill="#FF6900" fill-opacity="0.2"/>
<path d="M14.5 194.15L8.725 199.925L6.1 197.3" stroke="#FF6900" stroke-width="1.05" stroke-linecap="round" stroke-linejoin="round"/>
<rect y="224.4" width="20.6" height="20.6" rx="10.3" fill="#FF6900" fill-opacity="0.2"/>
<path d="M14.5 231.55L8.725 237.325L6.1 234.7" stroke="#FF6900" stroke-width="1.05" stroke-linecap="round" stroke-linejoin="round"/>
</svg>
