<?xml version="1.0" encoding="UTF-8"?>
<svg xmlns="http://www.w3.org/2000/svg" version="1.0" width="513.000000pt" height="596.000000pt" viewBox="0 0 513.000000 596.000000" preserveAspectRatio="xMidYMid meet" style="background: transparent;">
<metadata>
Created by potrace 1.16, written by Peter Selinger 2001-2019
</metadata>
<g transform="translate(0.000000,596.000000) scale(0.100000,-0.100000)" fill="#e45400" stroke="none">
<path d="M2443 5049 c3 -13 8 -34 10 -46 3 -12 13 -32 21 -45 18 -27 69 -223 64 -240 -2 -6 -26 32 -52 84 -34 69 -65 113 -109 158 -86 87 -97 91 -182 75 -119 -23 -240 -55 -243 -65 -2 -6 -8 -8 -13 -4 -5 3 -9 0 -9 -5 0 -6 -8 -11 -17 -12 -10 0 4 -7 32 -14 97 -27 208 -91 273 -157 34 -34 64 -70 68 -80 3 -10 11 -15 17 -12 7 4 9 4 5 -1 -4 -4 6 -30 22 -59 30 -54 65 -166 58 -186 -2 -7 -22 18 -43 55 -128 218 -400 360 -623 325 -136 -22 -293 -103 -393 -203 -76 -76 -107 -132 -118 -210 -6 -45 -16 -63 -63 -119 -31 -37 -62 -77 -69 -90 -6 -13 -15 -25 -19 -28 -17 -12 -82 -144 -113 -230 -43 -117 -46 -126 -56 -190 l-8 -51 36 38 c119 127 319 253 501 316 84 29 199 62 247 72 33 6 56 -11 29 -21 -9 -3 -13 -11 -9 -17 3 -5 1 -7 -5 -3 -12 7 -214 -88 -327 -155 -185 -111 -342 -255 -422 -390 -18 -30 -44 -94 -59 -144 -25 -82 -27 -104 -27 -245 1 -215 34 -390 121 -629 l16 -44 13 64 c43 214 246 463 496 611 74 43 102 43 50 -1 -18 -15 -33 -34 -33 -41 0 -7 -3 -10 -6 -7 -10 10 -149 -129 -209 -209 -67 -88 -116 -179 -146 -269 -21 -60 -24 -89 -24 -205 0 -117 3 -144 24 -199 40 -108 135 -256 211 -326 l32 -30 -20 41 c-59 117 -68 350 -18 497 33 97 71 174 132 263 53 78 149 193 203 242 52 48 125 98 119 81 -3 -8 -43 -68 -89 -134 -216 -311 -285 -569 -227 -850 12 -60 72 -204 107 -260 99 -156 357 -414 605 -605 32 -25 84 -66 116 -93 32 -26 61 -44 63 -40 3 5 15 49 28 98 34 131 32 306 -6 470 -29 129 -83 285 -121 351 -13 22 -24 49 -24 60 1 18 1 18 15 0 7 -10 29 -35 47 -55 65 -71 166 -239 206 -346 42 -111 54 -292 27 -420 -15 -69 -80 -214 -130 -288 -14 -20 -23 -37 -20 -37 13 0 178 88 270 143 267 161 516 356 712 558 136 141 213 260 265 410 31 90 32 100 33 249 0 134 -3 166 -23 235 -38 128 -132 309 -227 436 -46 63 -80 116 -74 117 27 10 256 -214 321 -313 155 -239 191 -437 124 -697 l-24 -93 44 49 c191 209 257 447 189 680 -47 162 -123 277 -296 448 -66 64 -119 119 -119 123 0 8 59 -25 90 -51 14 -11 45 -32 70 -46 65 -37 180 -142 246 -223 70 -87 131 -213 152 -315 l16 -77 33 101 c62 187 95 363 100 538 6 177 -2 239 -47 347 -55 135 -160 262 -303 369 -116 86 -176 122 -354 211 -79 39 -143 76 -143 82 0 6 7 8 16 5 9 -3 60 -17 113 -31 245 -63 457 -176 608 -326 l75 -74 -7 50 c-24 170 -145 421 -269 556 -24 25 -35 49 -40 85 -16 110 -84 213 -189 288 -280 198 -558 199 -789 2 -62 -54 -148 -158 -180 -220 -22 -43 -30 -16 -13 48 30 114 125 256 220 328 56 43 134 82 213 107 l52 17 -126 38 c-175 53 -266 66 -503 73 l-204 6 6 -24z m-769 -510 c70 -19 201 -87 246 -127 l43 -38 -92 -12 c-133 -18 -238 -54 -310 -107 -54 -40 -111 -109 -111 -134 0 -17 -21 -23 -36 -10 -24 20 -71 119 -79 167 -15 93 43 209 126 250 50 25 146 30 213 11z m2022 -10 c105 -50 150 -171 113 -304 -11 -40 -64 -125 -78 -125 -4 0 -15 16 -25 36 -27 58 -64 101 -115 133 -45 29 -188 73 -281 86 -78 11 -100 16 -100 26 0 12 130 95 189 121 121 54 224 63 297 27z m-1282 -208 c66 -34 136 -103 151 -150 l7 -23 21 27 c64 81 103 115 164 146 64 32 74 34 168 34 84 0 108 -4 147 -24 55 -26 66 -39 171 -198 43 -65 92 -136 108 -158 101 -137 119 -178 119 -280 0 -142 -47 -245 -189 -415 -30 -36 -63 -80 -74 -97 -10 -18 -22 -33 -27 -33 -4 0 -10 24 -14 54 -6 56 -32 126 -60 161 -15 20 -15 20 -16 -1 0 -42 31 -200 53 -264 43 -129 22 -284 -53 -378 -45 -57 -89 -77 -157 -69 -49 5 -206 78 -270 126 -39 28 -43 35 -43 73 0 60 45 144 97 179 23 16 44 29 47 29 3 0 30 9 61 21 39 15 60 29 70 49 19 36 20 75 3 63 -7 -4 -58 -11 -113 -15 -55 -4 -124 -10 -153 -14 -31 -4 -77 -1 -115 6 -34 7 -100 14 -147 15 -47 1 -93 5 -102 9 -26 12 -23 -23 5 -64 16 -24 39 -39 84 -55 78 -28 124 -62 156 -117 26 -45 43 -126 30 -144 -14 -18 -101 -74 -180 -114 -167 -86 -270 -58 -339 92 -41 91 -44 187 -11 304 31 108 50 211 45 250 -3 27 -5 26 -31 -26 -15 -31 -30 -82 -35 -114 l-7 -59 -75 92 c-189 233 -242 362 -210 517 15 74 24 92 113 215 40 55 104 147 144 205 80 116 97 136 133 154 44 23 83 29 172 27 75 -3 95 -7 152 -36z m271 -1652 c212 -97 248 -115 261 -134 21 -29 18 -151 -4 -194 -22 -45 -34 -48 -50 -11 -16 34 -32 39 -32 10 0 -12 -9 -37 -19 -58 -20 -40 -80 -102 -83 -86 -12 78 -20 111 -32 132 l-13 24 -12 -29 c-7 -17 -36 -54 -66 -83 l-53 -53 -58 54 c-31 30 -65 67 -74 82 l-17 28 -17 -50 c-9 -27 -16 -61 -16 -75 0 -14 -5 -26 -11 -26 -22 0 -79 72 -92 116 -13 45 -13 45 -25 20 -6 -14 -18 -26 -26 -26 -22 0 -49 79 -48 143 0 66 18 101 56 111 14 3 90 38 168 76 79 38 150 69 158 69 8 1 55 -17 105 -40z"/>
<path d="M1966 3828 c20 -36 79 -100 102 -112 15 -8 49 -17 75 -21 33 -5 53 -14 62 -29 11 -16 30 -123 36 -201 0 -5 11 29 23 76 19 73 21 96 13 150 -14 98 -18 104 -78 117 -46 10 -206 32 -232 32 -4 0 -5 -6 -1 -12z"/>
<path d="M3065 3825 c-124 -17 -162 -34 -170 -77 -14 -77 -9 -183 10 -243 l20 -60 3 50 c7 135 33 186 102 200 56 11 117 52 150 100 l31 45 -28 -1 c-15 -1 -68 -7 -118 -14z"/>
</g>
</svg>