<svg width="430" height="200" viewBox="0 0 430 200" fill="none" xmlns="http://www.w3.org/2000/svg">
<rect width="20" height="20" rx="10" fill="#27272A"/>
<path d="M14 7L8.5 12.5L6 10" stroke="#CAD5E2" stroke-linecap="round" stroke-linejoin="round"/>
<rect y="36" width="20" height="20" rx="10" fill="#27272A"/>
<path d="M14 43L8.5 48.5L6 46" stroke="#CAD5E2" stroke-linecap="round" stroke-linejoin="round"/>
<rect y="72" width="20" height="20" rx="10" fill="#27272A"/>
<path d="M14 79L8.5 84.5L6 82" stroke="#CAD5E2" stroke-linecap="round" stroke-linejoin="round"/>
<rect y="108" width="20" height="20" rx="10" fill="#27272A"/>
<path d="M14 115L8.5 120.5L6 118" stroke="#CAD5E2" stroke-linecap="round" stroke-linejoin="round"/>
<rect y="144" width="20" height="20" rx="10" fill="#27272A"/>
<path d="M14 151L8.5 156.5L6 154" stroke="#CAD5E2" stroke-linecap="round" stroke-linejoin="round"/>
<rect y="180" width="20" height="20" rx="10" fill="#27272A"/>
<path d="M14 187L8.5 192.5L6 190" stroke="#CAD5E2" stroke-linecap="round" stroke-linejoin="round"/>
</svg>
